<mxfile host="app.diagrams.net" agent="Mozilla/5.0 (Windows NT 10.0; Win64; x64) AppleWebKit/537.36 (KHTML, like Gecko) Chrome/133.0.0.0 Safari/537.36 Edg/133.0.0.0" version="26.0.16">
  <diagram name="第 1 页" id="VBhI_qnl64h8-WdRRAqA">
    <mxGraphModel dx="1277" dy="2027" grid="1" gridSize="10" guides="1" tooltips="1" connect="1" arrows="1" fold="1" page="1" pageScale="1" pageWidth="827" pageHeight="1169" math="0" shadow="0">
      <root>
        <mxCell id="0" />
        <mxCell id="1" parent="0" />
        <mxCell id="yev6rF8NCcxzfeNnYfcX-55" value="" style="rounded=1;whiteSpace=wrap;html=1;fillColor=#f5f5f5;fontColor=#333333;strokeColor=#666666;fontFamily=Times New Roman;" vertex="1" parent="1">
          <mxGeometry x="348" y="-864" width="118" height="247" as="geometry" />
        </mxCell>
        <mxCell id="yev6rF8NCcxzfeNnYfcX-56" style="edgeStyle=orthogonalEdgeStyle;rounded=1;orthogonalLoop=1;jettySize=auto;html=1;entryX=1;entryY=0.5;entryDx=0;entryDy=0;fontFamily=Times New Roman;endSize=3;curved=0;" edge="1" parent="1" target="yev6rF8NCcxzfeNnYfcX-106">
          <mxGeometry relative="1" as="geometry">
            <mxPoint x="400" y="-715" as="sourcePoint" />
            <mxPoint x="477" y="-531" as="targetPoint" />
            <Array as="points">
              <mxPoint x="400" y="-715" />
              <mxPoint x="459" y="-715" />
              <mxPoint x="459" y="-779" />
            </Array>
          </mxGeometry>
        </mxCell>
        <mxCell id="yev6rF8NCcxzfeNnYfcX-57" value="" style="rounded=1;whiteSpace=wrap;html=1;fillColor=#f5f5f5;fontColor=#333333;strokeColor=#666666;fontFamily=Times New Roman;" vertex="1" parent="1">
          <mxGeometry x="200" y="-781" width="120" height="163" as="geometry" />
        </mxCell>
        <mxCell id="yev6rF8NCcxzfeNnYfcX-58" style="edgeStyle=orthogonalEdgeStyle;rounded=0;orthogonalLoop=1;jettySize=auto;html=1;exitX=0.5;exitY=0;exitDx=0;exitDy=0;entryX=0.5;entryY=1;entryDx=0;entryDy=0;strokeWidth=1;fontFamily=Times New Roman;endSize=3;" edge="1" parent="1" source="yev6rF8NCcxzfeNnYfcX-59" target="yev6rF8NCcxzfeNnYfcX-60">
          <mxGeometry relative="1" as="geometry" />
        </mxCell>
        <mxCell id="yev6rF8NCcxzfeNnYfcX-59" value="Multi-Head Attention" style="rounded=1;whiteSpace=wrap;html=1;fontFamily=Times New Roman;fillColor=#ffe1bb;strokeColor=#000000;strokeWidth=1;" vertex="1" parent="1">
          <mxGeometry x="230" y="-675" width="80" height="30" as="geometry" />
        </mxCell>
        <mxCell id="yev6rF8NCcxzfeNnYfcX-60" value="Feed&lt;div&gt;Forwad&lt;/div&gt;" style="rounded=1;whiteSpace=wrap;html=1;fontFamily=Times New Roman;strokeWidth=1;fillColor=#c2e7f7;" vertex="1" parent="1">
          <mxGeometry x="230" y="-748" width="80" height="30" as="geometry" />
        </mxCell>
        <mxCell id="yev6rF8NCcxzfeNnYfcX-61" style="edgeStyle=orthogonalEdgeStyle;rounded=1;orthogonalLoop=1;jettySize=auto;html=1;entryX=0;entryY=0.5;entryDx=0;entryDy=0;fontFamily=Times New Roman;endSize=3;curved=0;" edge="1" parent="1" target="yev6rF8NCcxzfeNnYfcX-63">
          <mxGeometry relative="1" as="geometry">
            <Array as="points">
              <mxPoint x="270" y="-705" />
              <mxPoint x="210" y="-705" />
              <mxPoint x="210" y="-760" />
            </Array>
            <mxPoint x="270" y="-705" as="sourcePoint" />
          </mxGeometry>
        </mxCell>
        <mxCell id="yev6rF8NCcxzfeNnYfcX-62" value="Add &amp;amp; Norm" style="rounded=1;whiteSpace=wrap;html=1;fontFamily=Times New Roman;fillColor=#f2f4c2;strokeColor=#000000;strokeWidth=1;" vertex="1" parent="1">
          <mxGeometry x="230" y="-695" width="80" height="15" as="geometry" />
        </mxCell>
        <mxCell id="yev6rF8NCcxzfeNnYfcX-63" value="Add &amp;amp; Norm" style="rounded=1;whiteSpace=wrap;html=1;fontFamily=Times New Roman;strokeWidth=1;fillColor=#f4f6c3;" vertex="1" parent="1">
          <mxGeometry x="230" y="-768" width="80" height="15" as="geometry" />
        </mxCell>
        <mxCell id="yev6rF8NCcxzfeNnYfcX-64" style="edgeStyle=orthogonalEdgeStyle;rounded=0;orthogonalLoop=1;jettySize=auto;html=1;entryX=0.5;entryY=1;entryDx=0;entryDy=0;fontFamily=Times New Roman;endSize=3;" edge="1" parent="1" source="yev6rF8NCcxzfeNnYfcX-67" target="yev6rF8NCcxzfeNnYfcX-59">
          <mxGeometry relative="1" as="geometry" />
        </mxCell>
        <mxCell id="yev6rF8NCcxzfeNnYfcX-65" style="edgeStyle=orthogonalEdgeStyle;rounded=1;orthogonalLoop=1;jettySize=auto;html=1;entryX=0.873;entryY=0.99;entryDx=0;entryDy=0;entryPerimeter=0;fontFamily=Times New Roman;endSize=3;curved=0;" edge="1" parent="1" target="yev6rF8NCcxzfeNnYfcX-59">
          <mxGeometry relative="1" as="geometry">
            <Array as="points">
              <mxPoint x="270" y="-635" />
              <mxPoint x="300" y="-635" />
            </Array>
            <mxPoint x="270" y="-635" as="sourcePoint" />
          </mxGeometry>
        </mxCell>
        <mxCell id="yev6rF8NCcxzfeNnYfcX-66" style="edgeStyle=orthogonalEdgeStyle;rounded=1;orthogonalLoop=1;jettySize=auto;html=1;entryX=0;entryY=0.5;entryDx=0;entryDy=0;fontFamily=Times New Roman;endSize=3;curved=0;" edge="1" parent="1" target="yev6rF8NCcxzfeNnYfcX-62">
          <mxGeometry relative="1" as="geometry">
            <Array as="points">
              <mxPoint x="270" y="-625" />
              <mxPoint x="210" y="-625" />
              <mxPoint x="210" y="-687" />
            </Array>
            <mxPoint x="270" y="-625" as="sourcePoint" />
          </mxGeometry>
        </mxCell>
        <mxCell id="yev6rF8NCcxzfeNnYfcX-67" value="" style="shape=orEllipse;perimeter=ellipsePerimeter;whiteSpace=wrap;html=1;backgroundOutline=1;fontFamily=Times New Roman;" vertex="1" parent="1">
          <mxGeometry x="265" y="-604.91" width="10" height="10" as="geometry" />
        </mxCell>
        <mxCell id="yev6rF8NCcxzfeNnYfcX-68" style="edgeStyle=orthogonalEdgeStyle;rounded=0;orthogonalLoop=1;jettySize=auto;html=1;entryX=0.5;entryY=1;entryDx=0;entryDy=0;fontFamily=Times New Roman;endSize=3;" edge="1" parent="1" source="yev6rF8NCcxzfeNnYfcX-69" target="yev6rF8NCcxzfeNnYfcX-67">
          <mxGeometry relative="1" as="geometry" />
        </mxCell>
        <mxCell id="yev6rF8NCcxzfeNnYfcX-69" value="Input&lt;div&gt;Embedding&lt;/div&gt;" style="rounded=1;whiteSpace=wrap;html=1;fontFamily=Times New Roman;fillColor=#fcdfe1;strokeColor=#000000;strokeWidth=1;" vertex="1" parent="1">
          <mxGeometry x="230" y="-582" width="80" height="30" as="geometry" />
        </mxCell>
        <mxCell id="yev6rF8NCcxzfeNnYfcX-70" style="edgeStyle=orthogonalEdgeStyle;rounded=0;orthogonalLoop=1;jettySize=auto;html=1;entryX=0;entryY=0.5;entryDx=0;entryDy=0;endArrow=none;endFill=0;fontFamily=Times New Roman;" edge="1" parent="1" source="yev6rF8NCcxzfeNnYfcX-71" target="yev6rF8NCcxzfeNnYfcX-67">
          <mxGeometry relative="1" as="geometry" />
        </mxCell>
        <mxCell id="yev6rF8NCcxzfeNnYfcX-71" value="" style="ellipse;whiteSpace=wrap;html=1;aspect=fixed;movable=1;resizable=1;rotatable=1;deletable=1;editable=1;locked=0;connectable=1;container=0;fontFamily=Times New Roman;" vertex="1" parent="1">
          <mxGeometry x="231" y="-609.91" width="20" height="20" as="geometry" />
        </mxCell>
        <mxCell id="yev6rF8NCcxzfeNnYfcX-72" value="" style="endArrow=none;html=1;rounded=0;edgeStyle=orthogonalEdgeStyle;curved=1;movable=1;resizable=1;rotatable=1;deletable=1;editable=1;locked=0;connectable=1;fontFamily=Times New Roman;" edge="1" parent="1">
          <mxGeometry width="50" height="50" relative="1" as="geometry">
            <mxPoint x="230.97" y="-599.9166666666666" as="sourcePoint" />
            <mxPoint x="250.97000000000003" y="-599.9166666666666" as="targetPoint" />
            <Array as="points">
              <mxPoint x="230.97" y="-606.5833333333333" />
              <mxPoint x="240.97" y="-606.5833333333333" />
              <mxPoint x="240.97" y="-593.25" />
              <mxPoint x="250.97000000000003" y="-593.25" />
            </Array>
          </mxGeometry>
        </mxCell>
        <mxCell id="yev6rF8NCcxzfeNnYfcX-73" style="edgeStyle=orthogonalEdgeStyle;rounded=0;orthogonalLoop=1;jettySize=auto;html=1;exitX=0.5;exitY=0;exitDx=0;exitDy=0;entryX=0.5;entryY=1;entryDx=0;entryDy=0;fontFamily=Times New Roman;endSize=3;" edge="1" parent="1" source="yev6rF8NCcxzfeNnYfcX-74" target="yev6rF8NCcxzfeNnYfcX-69">
          <mxGeometry relative="1" as="geometry" />
        </mxCell>
        <mxCell id="yev6rF8NCcxzfeNnYfcX-74" value="Inputs" style="text;html=1;align=center;verticalAlign=middle;whiteSpace=wrap;rounded=0;fontFamily=Times New Roman;" vertex="1" parent="1">
          <mxGeometry x="240" y="-534" width="60" height="30" as="geometry" />
        </mxCell>
        <mxCell id="yev6rF8NCcxzfeNnYfcX-75" style="edgeStyle=orthogonalEdgeStyle;rounded=1;orthogonalLoop=1;jettySize=auto;html=1;entryX=0.125;entryY=1;entryDx=0;entryDy=0;entryPerimeter=0;fontFamily=Times New Roman;endSize=3;curved=0;" edge="1" parent="1" target="yev6rF8NCcxzfeNnYfcX-59">
          <mxGeometry relative="1" as="geometry">
            <Array as="points">
              <mxPoint x="270" y="-635" />
              <mxPoint x="240" y="-635" />
            </Array>
            <mxPoint x="270" y="-635" as="sourcePoint" />
          </mxGeometry>
        </mxCell>
        <mxCell id="yev6rF8NCcxzfeNnYfcX-76" value="Masked&amp;nbsp;&lt;div&gt;Multi-Head Attention&lt;/div&gt;" style="rounded=1;whiteSpace=wrap;html=1;fontFamily=Times New Roman;fillColor=#ffe1bb;strokeColor=#000000;strokeWidth=1;" vertex="1" parent="1">
          <mxGeometry x="360" y="-688" width="80" height="45" as="geometry" />
        </mxCell>
        <mxCell id="yev6rF8NCcxzfeNnYfcX-77" value="Feed&lt;div&gt;Forwad&lt;/div&gt;" style="rounded=1;whiteSpace=wrap;html=1;fontFamily=Times New Roman;strokeWidth=1;fillColor=#c2e7f7;" vertex="1" parent="1">
          <mxGeometry x="360" y="-837" width="80" height="30" as="geometry" />
        </mxCell>
        <mxCell id="yev6rF8NCcxzfeNnYfcX-78" value="Add &amp;amp; Norm" style="rounded=1;whiteSpace=wrap;html=1;fontFamily=Times New Roman;strokeWidth=1;fillColor=#f4f6c3;" vertex="1" parent="1">
          <mxGeometry x="360" y="-857" width="80" height="15" as="geometry" />
        </mxCell>
        <mxCell id="yev6rF8NCcxzfeNnYfcX-79" style="edgeStyle=orthogonalEdgeStyle;rounded=0;orthogonalLoop=1;jettySize=auto;html=1;entryX=0.5;entryY=1;entryDx=0;entryDy=0;fontFamily=Times New Roman;targetPerimeterSpacing=1;endSize=3;" edge="1" parent="1" source="yev6rF8NCcxzfeNnYfcX-82" target="yev6rF8NCcxzfeNnYfcX-76">
          <mxGeometry relative="1" as="geometry" />
        </mxCell>
        <mxCell id="yev6rF8NCcxzfeNnYfcX-80" style="edgeStyle=orthogonalEdgeStyle;rounded=1;orthogonalLoop=1;jettySize=auto;html=1;entryX=0.873;entryY=0.99;entryDx=0;entryDy=0;entryPerimeter=0;fontFamily=Times New Roman;targetPerimeterSpacing=1;endSize=3;curved=0;" edge="1" parent="1" target="yev6rF8NCcxzfeNnYfcX-76">
          <mxGeometry relative="1" as="geometry">
            <Array as="points">
              <mxPoint x="400" y="-635" />
              <mxPoint x="430" y="-635" />
            </Array>
            <mxPoint x="400" y="-635" as="sourcePoint" />
          </mxGeometry>
        </mxCell>
        <mxCell id="yev6rF8NCcxzfeNnYfcX-81" style="edgeStyle=orthogonalEdgeStyle;rounded=1;orthogonalLoop=1;jettySize=auto;html=1;fontFamily=Times New Roman;endSize=3;entryX=1;entryY=0.5;entryDx=0;entryDy=0;curved=0;" edge="1" parent="1" target="yev6rF8NCcxzfeNnYfcX-105">
          <mxGeometry relative="1" as="geometry">
            <Array as="points">
              <mxPoint x="400" y="-625" />
              <mxPoint x="459" y="-625" />
              <mxPoint x="459" y="-701" />
            </Array>
            <mxPoint x="439" y="-687" as="targetPoint" />
            <mxPoint x="400" y="-625" as="sourcePoint" />
          </mxGeometry>
        </mxCell>
        <mxCell id="yev6rF8NCcxzfeNnYfcX-82" value="" style="shape=orEllipse;perimeter=ellipsePerimeter;whiteSpace=wrap;html=1;backgroundOutline=1;fontFamily=Times New Roman;" vertex="1" parent="1">
          <mxGeometry x="395" y="-604.91" width="10" height="10" as="geometry" />
        </mxCell>
        <mxCell id="yev6rF8NCcxzfeNnYfcX-83" style="edgeStyle=orthogonalEdgeStyle;rounded=0;orthogonalLoop=1;jettySize=auto;html=1;entryX=0.5;entryY=1;entryDx=0;entryDy=0;fontFamily=Times New Roman;endSize=3;" edge="1" parent="1" source="yev6rF8NCcxzfeNnYfcX-84" target="yev6rF8NCcxzfeNnYfcX-82">
          <mxGeometry relative="1" as="geometry" />
        </mxCell>
        <mxCell id="yev6rF8NCcxzfeNnYfcX-84" value="Output&lt;div&gt;Embedding&lt;/div&gt;" style="rounded=1;whiteSpace=wrap;html=1;fontFamily=Times New Roman;fillColor=#fcdfe1;strokeColor=#000000;strokeWidth=1;" vertex="1" parent="1">
          <mxGeometry x="360" y="-581" width="80" height="30" as="geometry" />
        </mxCell>
        <mxCell id="yev6rF8NCcxzfeNnYfcX-85" style="edgeStyle=orthogonalEdgeStyle;rounded=0;orthogonalLoop=1;jettySize=auto;html=1;entryX=1;entryY=0.5;entryDx=0;entryDy=0;endArrow=none;endFill=0;fontFamily=Times New Roman;" edge="1" parent="1" source="yev6rF8NCcxzfeNnYfcX-86" target="yev6rF8NCcxzfeNnYfcX-82">
          <mxGeometry relative="1" as="geometry" />
        </mxCell>
        <mxCell id="yev6rF8NCcxzfeNnYfcX-86" value="" style="ellipse;whiteSpace=wrap;html=1;aspect=fixed;movable=1;resizable=1;rotatable=1;deletable=1;editable=1;locked=0;connectable=1;container=0;fontFamily=Times New Roman;" vertex="1" parent="1">
          <mxGeometry x="420" y="-609.91" width="20" height="20" as="geometry" />
        </mxCell>
        <mxCell id="yev6rF8NCcxzfeNnYfcX-87" value="" style="endArrow=none;html=1;rounded=0;edgeStyle=orthogonalEdgeStyle;curved=1;movable=1;resizable=1;rotatable=1;deletable=1;editable=1;locked=0;connectable=1;fontFamily=Times New Roman;" edge="1" parent="1">
          <mxGeometry width="50" height="50" relative="1" as="geometry">
            <mxPoint x="419.97" y="-599.9166666666666" as="sourcePoint" />
            <mxPoint x="439.97" y="-599.9166666666666" as="targetPoint" />
            <Array as="points">
              <mxPoint x="419.97" y="-606.5833333333333" />
              <mxPoint x="429.97" y="-606.5833333333333" />
              <mxPoint x="429.97" y="-593.25" />
              <mxPoint x="439.97" y="-593.25" />
            </Array>
          </mxGeometry>
        </mxCell>
        <mxCell id="yev6rF8NCcxzfeNnYfcX-88" style="edgeStyle=orthogonalEdgeStyle;rounded=0;orthogonalLoop=1;jettySize=auto;html=1;exitX=0.5;exitY=0;exitDx=0;exitDy=0;entryX=0.5;entryY=1;entryDx=0;entryDy=0;fontFamily=Times New Roman;endSize=3;" edge="1" parent="1" source="yev6rF8NCcxzfeNnYfcX-89" target="yev6rF8NCcxzfeNnYfcX-84">
          <mxGeometry relative="1" as="geometry" />
        </mxCell>
        <mxCell id="yev6rF8NCcxzfeNnYfcX-89" value="Outputs&lt;div&gt;(Shifted Right)&lt;/div&gt;" style="text;html=1;align=center;verticalAlign=middle;whiteSpace=wrap;rounded=0;fontFamily=Times New Roman;" vertex="1" parent="1">
          <mxGeometry x="365.5" y="-526" width="74.5" height="30" as="geometry" />
        </mxCell>
        <mxCell id="yev6rF8NCcxzfeNnYfcX-90" style="edgeStyle=orthogonalEdgeStyle;rounded=1;orthogonalLoop=1;jettySize=auto;html=1;entryX=0.125;entryY=1;entryDx=0;entryDy=0;entryPerimeter=0;fontFamily=Times New Roman;targetPerimeterSpacing=1;endSize=3;curved=0;" edge="1" parent="1" target="yev6rF8NCcxzfeNnYfcX-76">
          <mxGeometry relative="1" as="geometry">
            <Array as="points">
              <mxPoint x="400" y="-635" />
              <mxPoint x="370" y="-635" />
            </Array>
            <mxPoint x="400" y="-635" as="sourcePoint" />
          </mxGeometry>
        </mxCell>
        <mxCell id="yev6rF8NCcxzfeNnYfcX-91" value="Positional&lt;div&gt;Encoding&lt;/div&gt;" style="text;html=1;align=center;verticalAlign=middle;whiteSpace=wrap;rounded=0;fontFamily=Times New Roman;" vertex="1" parent="1">
          <mxGeometry x="170" y="-614" width="60" height="30" as="geometry" />
        </mxCell>
        <mxCell id="yev6rF8NCcxzfeNnYfcX-92" value="Positional&lt;div&gt;Encoding&lt;/div&gt;" style="text;html=1;align=center;verticalAlign=middle;whiteSpace=wrap;rounded=0;fontFamily=Times New Roman;" vertex="1" parent="1">
          <mxGeometry x="443" y="-614" width="60" height="30" as="geometry" />
        </mxCell>
        <mxCell id="yev6rF8NCcxzfeNnYfcX-93" value="Multi-Head Attention" style="rounded=1;whiteSpace=wrap;html=1;fontFamily=Times New Roman;fillColor=#ffe1bb;strokeColor=#000000;strokeWidth=1;" vertex="1" parent="1">
          <mxGeometry x="360" y="-766" width="80" height="30" as="geometry" />
        </mxCell>
        <mxCell id="yev6rF8NCcxzfeNnYfcX-94" style="edgeStyle=orthogonalEdgeStyle;rounded=1;orthogonalLoop=1;jettySize=auto;html=1;exitX=0.5;exitY=0;exitDx=0;exitDy=0;strokeWidth=1;fontFamily=Times New Roman;endSize=3;entryX=0.5;entryY=1;entryDx=0;entryDy=0;curved=0;" edge="1" parent="1" source="yev6rF8NCcxzfeNnYfcX-63" target="yev6rF8NCcxzfeNnYfcX-93">
          <mxGeometry relative="1" as="geometry">
            <mxPoint x="280" y="-665" as="sourcePoint" />
            <mxPoint x="390" y="-725" as="targetPoint" />
            <Array as="points">
              <mxPoint x="270" y="-788" />
              <mxPoint x="330" y="-788" />
              <mxPoint x="330" y="-725" />
              <mxPoint x="400" y="-725" />
            </Array>
          </mxGeometry>
        </mxCell>
        <mxCell id="yev6rF8NCcxzfeNnYfcX-95" style="edgeStyle=orthogonalEdgeStyle;rounded=1;orthogonalLoop=1;jettySize=auto;html=1;entryX=0.132;entryY=0.944;entryDx=0;entryDy=0;fontFamily=Times New Roman;endSize=3;entryPerimeter=0;exitX=0.5;exitY=0;exitDx=0;exitDy=0;curved=0;" edge="1" parent="1" source="yev6rF8NCcxzfeNnYfcX-63" target="yev6rF8NCcxzfeNnYfcX-93">
          <mxGeometry relative="1" as="geometry">
            <mxPoint x="280" y="-572" as="sourcePoint" />
            <mxPoint x="280" y="-585" as="targetPoint" />
            <Array as="points">
              <mxPoint x="270" y="-788" />
              <mxPoint x="330" y="-788" />
              <mxPoint x="330" y="-725" />
              <mxPoint x="370" y="-725" />
              <mxPoint x="370" y="-738" />
            </Array>
          </mxGeometry>
        </mxCell>
        <mxCell id="yev6rF8NCcxzfeNnYfcX-96" style="edgeStyle=orthogonalEdgeStyle;rounded=0;orthogonalLoop=1;jettySize=auto;html=1;entryX=0.5;entryY=1;entryDx=0;entryDy=0;fontFamily=Times New Roman;endSize=3;exitX=0.5;exitY=0;exitDx=0;exitDy=0;" edge="1" parent="1" source="yev6rF8NCcxzfeNnYfcX-93" target="yev6rF8NCcxzfeNnYfcX-77">
          <mxGeometry relative="1" as="geometry">
            <mxPoint x="477" y="-505" as="sourcePoint" />
            <mxPoint x="477" y="-531" as="targetPoint" />
          </mxGeometry>
        </mxCell>
        <mxCell id="yev6rF8NCcxzfeNnYfcX-97" style="edgeStyle=orthogonalEdgeStyle;rounded=1;orthogonalLoop=1;jettySize=auto;html=1;entryX=1;entryY=0.5;entryDx=0;entryDy=0;fontFamily=Times New Roman;endSize=3;curved=0;" edge="1" parent="1" target="yev6rF8NCcxzfeNnYfcX-78">
          <mxGeometry relative="1" as="geometry">
            <mxPoint x="400" y="-795" as="sourcePoint" />
            <mxPoint x="487" y="-521" as="targetPoint" />
            <Array as="points">
              <mxPoint x="400" y="-795" />
              <mxPoint x="459" y="-795" />
              <mxPoint x="459" y="-849" />
            </Array>
          </mxGeometry>
        </mxCell>
        <mxCell id="yev6rF8NCcxzfeNnYfcX-98" style="edgeStyle=orthogonalEdgeStyle;rounded=0;orthogonalLoop=1;jettySize=auto;html=1;entryX=0.5;entryY=1;entryDx=0;entryDy=0;fontFamily=Times New Roman;endSize=3;exitX=0.5;exitY=0;exitDx=0;exitDy=0;" edge="1" parent="1" source="yev6rF8NCcxzfeNnYfcX-102" target="yev6rF8NCcxzfeNnYfcX-103">
          <mxGeometry relative="1" as="geometry">
            <mxPoint x="487" y="-495" as="sourcePoint" />
            <mxPoint x="487" y="-521" as="targetPoint" />
          </mxGeometry>
        </mxCell>
        <mxCell id="yev6rF8NCcxzfeNnYfcX-99" style="edgeStyle=orthogonalEdgeStyle;rounded=0;orthogonalLoop=1;jettySize=auto;html=1;entryX=0.5;entryY=1;entryDx=0;entryDy=0;fontFamily=Times New Roman;endSize=3;exitX=0.5;exitY=0;exitDx=0;exitDy=0;" edge="1" parent="1" source="yev6rF8NCcxzfeNnYfcX-101" target="yev6rF8NCcxzfeNnYfcX-102">
          <mxGeometry relative="1" as="geometry">
            <mxPoint x="497" y="-485" as="sourcePoint" />
            <mxPoint x="497" y="-511" as="targetPoint" />
          </mxGeometry>
        </mxCell>
        <mxCell id="yev6rF8NCcxzfeNnYfcX-100" style="edgeStyle=orthogonalEdgeStyle;rounded=0;orthogonalLoop=1;jettySize=auto;html=1;entryX=0.5;entryY=1;entryDx=0;entryDy=0;fontFamily=Times New Roman;endSize=3;exitX=0.5;exitY=0;exitDx=0;exitDy=0;" edge="1" parent="1" source="yev6rF8NCcxzfeNnYfcX-78" target="yev6rF8NCcxzfeNnYfcX-101">
          <mxGeometry relative="1" as="geometry">
            <mxPoint x="507" y="-475" as="sourcePoint" />
            <mxPoint x="507" y="-501" as="targetPoint" />
          </mxGeometry>
        </mxCell>
        <mxCell id="yev6rF8NCcxzfeNnYfcX-101" value="Linear" style="rounded=1;whiteSpace=wrap;html=1;fontFamily=Times New Roman;strokeWidth=1;fillColor=#dcdff0;" vertex="1" parent="1">
          <mxGeometry x="360" y="-894" width="80" height="15" as="geometry" />
        </mxCell>
        <mxCell id="yev6rF8NCcxzfeNnYfcX-102" value="Softmax" style="rounded=1;whiteSpace=wrap;html=1;fontFamily=Times New Roman;strokeWidth=1;fillColor=#cbe7d0;" vertex="1" parent="1">
          <mxGeometry x="360" y="-924" width="80" height="15" as="geometry" />
        </mxCell>
        <mxCell id="yev6rF8NCcxzfeNnYfcX-103" value="Outputs&lt;div&gt;Probabilities&lt;/div&gt;" style="text;html=1;align=center;verticalAlign=middle;whiteSpace=wrap;rounded=0;fontFamily=Times New Roman;" vertex="1" parent="1">
          <mxGeometry x="365.5" y="-970" width="69" height="30" as="geometry" />
        </mxCell>
        <mxCell id="yev6rF8NCcxzfeNnYfcX-104" value="" style="edgeStyle=orthogonalEdgeStyle;rounded=1;orthogonalLoop=1;jettySize=auto;html=1;exitX=0.5;exitY=0;exitDx=0;exitDy=0;entryX=0.75;entryY=1;entryDx=0;entryDy=0;strokeWidth=1;fontFamily=Times New Roman;endSize=3;curved=0;" edge="1" parent="1" source="yev6rF8NCcxzfeNnYfcX-76" target="yev6rF8NCcxzfeNnYfcX-93">
          <mxGeometry relative="1" as="geometry">
            <mxPoint x="400" y="-688" as="sourcePoint" />
            <mxPoint x="429" y="-735" as="targetPoint" />
            <Array as="points">
              <mxPoint x="400" y="-725" />
              <mxPoint x="420" y="-725" />
            </Array>
          </mxGeometry>
        </mxCell>
        <mxCell id="yev6rF8NCcxzfeNnYfcX-105" value="Add &amp;amp; Norm" style="rounded=1;whiteSpace=wrap;html=1;fontFamily=Times New Roman;fillColor=#f2f4c2;strokeColor=#000000;strokeWidth=1;" vertex="1" parent="1">
          <mxGeometry x="360" y="-709" width="80" height="15" as="geometry" />
        </mxCell>
        <mxCell id="yev6rF8NCcxzfeNnYfcX-106" value="Add &amp;amp; Norm" style="rounded=1;whiteSpace=wrap;html=1;fontFamily=Times New Roman;fillColor=#f2f4c2;strokeColor=#000000;strokeWidth=1;" vertex="1" parent="1">
          <mxGeometry x="360" y="-786" width="80" height="15" as="geometry" />
        </mxCell>
        <mxCell id="yev6rF8NCcxzfeNnYfcX-107" value="N×" style="text;html=1;align=center;verticalAlign=middle;whiteSpace=wrap;rounded=0;fontFamily=Times New Roman;" vertex="1" parent="1">
          <mxGeometry x="170" y="-706" width="30" height="26" as="geometry" />
        </mxCell>
        <mxCell id="yev6rF8NCcxzfeNnYfcX-108" value="N×" style="text;html=1;align=center;verticalAlign=middle;whiteSpace=wrap;rounded=0;fontFamily=Times New Roman;" vertex="1" parent="1">
          <mxGeometry x="466" y="-753" width="30" height="26" as="geometry" />
        </mxCell>
      </root>
    </mxGraphModel>
  </diagram>
</mxfile>
